<mxfile host="app.diagrams.net" modified="2024-02-22T09:28:07.979Z" agent="Mozilla/5.0 (Windows NT 10.0; Win64; x64; rv:122.0) Gecko/20100101 Firefox/122.0" etag="PbEYhssWKHFMtcNW6xoG" version="23.1.1" type="github">
  <diagram name="Page-1" id="JEni4N4xN4MO65VJZSVJ">
    <mxGraphModel dx="1434" dy="782" grid="0" gridSize="10" guides="1" tooltips="1" connect="1" arrows="1" fold="1" page="1" pageScale="1" pageWidth="1169" pageHeight="827" background="#D4E1F5" math="0" shadow="0">
      <root>
        <mxCell id="0" />
        <mxCell id="1" parent="0" />
        <mxCell id="yg5hyfQdusnZHyedkA8o-145" value="" style="image;aspect=fixed;html=1;points=[];align=center;fontSize=12;image=img/lib/azure2/general/Subscriptions.svg;" parent="1" vertex="1">
          <mxGeometry x="23.5" y="14" width="44" height="71" as="geometry" />
        </mxCell>
        <mxCell id="jlRopP4U9adaVWSlojzE-57" style="edgeStyle=orthogonalEdgeStyle;shape=link;rounded=0;orthogonalLoop=1;jettySize=auto;html=1;" edge="1" parent="1" source="yg5hyfQdusnZHyedkA8o-152">
          <mxGeometry relative="1" as="geometry">
            <mxPoint x="458" y="59.379999999999995" as="targetPoint" />
          </mxGeometry>
        </mxCell>
        <mxCell id="yg5hyfQdusnZHyedkA8o-152" value="" style="image;aspect=fixed;perimeter=ellipsePerimeter;html=1;align=center;shadow=0;dashed=0;spacingTop=3;image=img/lib/active_directory/internet_cloud.svg;" parent="1" vertex="1">
          <mxGeometry x="860" y="31.24" width="90.09" height="56.76" as="geometry" />
        </mxCell>
        <mxCell id="ELRano72_kiBZfm_JEAF-4" value="" style="swimlane;startSize=0;" parent="1" vertex="1">
          <mxGeometry x="10" y="142" width="154" height="148" as="geometry">
            <mxRectangle x="10" y="138" width="50" height="50" as="alternateBounds" />
          </mxGeometry>
        </mxCell>
        <mxCell id="yg5hyfQdusnZHyedkA8o-141" value="" style="image;aspect=fixed;html=1;points=[];align=center;fontSize=12;image=img/lib/azure2/storage/Storage_Accounts.svg;" parent="ELRano72_kiBZfm_JEAF-4" vertex="1">
          <mxGeometry x="79" y="34.5" width="65" height="52" as="geometry" />
        </mxCell>
        <mxCell id="yg5hyfQdusnZHyedkA8o-142" value="" style="image;sketch=0;aspect=fixed;html=1;points=[];align=center;fontSize=12;image=img/lib/mscae/BlobBlock.svg;" parent="ELRano72_kiBZfm_JEAF-4" vertex="1">
          <mxGeometry x="17" y="40" width="48.81" height="41" as="geometry" />
        </mxCell>
        <mxCell id="ELRano72_kiBZfm_JEAF-25" value="&lt;b&gt;Storage Account&lt;/b&gt;" style="text;html=1;align=center;verticalAlign=middle;resizable=0;points=[];autosize=1;strokeColor=none;fillColor=none;" parent="ELRano72_kiBZfm_JEAF-4" vertex="1">
          <mxGeometry x="6" y="6" width="113" height="26" as="geometry" />
        </mxCell>
        <mxCell id="ELRano72_kiBZfm_JEAF-6" value="" style="swimlane;startSize=0;" parent="1" vertex="1">
          <mxGeometry x="10" y="290" width="154" height="130" as="geometry">
            <mxRectangle x="10" y="345" width="50" height="44" as="alternateBounds" />
          </mxGeometry>
        </mxCell>
        <mxCell id="yg5hyfQdusnZHyedkA8o-143" value="" style="image;aspect=fixed;html=1;points=[];align=center;fontSize=12;image=img/lib/azure2/security/Key_Vaults.svg;" parent="ELRano72_kiBZfm_JEAF-6" vertex="1">
          <mxGeometry x="43" y="21" width="68" height="68" as="geometry" />
        </mxCell>
        <mxCell id="ELRano72_kiBZfm_JEAF-5" value="&lt;div&gt;&lt;b&gt;Key Vault&lt;/b&gt;&lt;/div&gt;" style="text;html=1;align=center;verticalAlign=middle;resizable=0;points=[];autosize=1;strokeColor=none;fillColor=none;" parent="ELRano72_kiBZfm_JEAF-6" vertex="1">
          <mxGeometry x="42" y="94" width="70" height="26" as="geometry" />
        </mxCell>
        <mxCell id="ELRano72_kiBZfm_JEAF-10" value="" style="swimlane;startSize=0;" parent="1" vertex="1">
          <mxGeometry x="9" y="421" width="154" height="137" as="geometry">
            <mxRectangle x="890" y="423" width="50" height="44" as="alternateBounds" />
          </mxGeometry>
        </mxCell>
        <mxCell id="ELRano72_kiBZfm_JEAF-9" value="&lt;div&gt;&lt;b&gt;Recovery Vault&lt;/b&gt;&lt;/div&gt;" style="text;html=1;align=center;verticalAlign=middle;resizable=0;points=[];autosize=1;strokeColor=none;fillColor=none;" parent="ELRano72_kiBZfm_JEAF-10" vertex="1">
          <mxGeometry x="26" y="88" width="102" height="26" as="geometry" />
        </mxCell>
        <mxCell id="yg5hyfQdusnZHyedkA8o-144" value="" style="image;aspect=fixed;html=1;points=[];align=center;fontSize=12;image=img/lib/azure2/management_governance/Recovery_Services_Vaults.svg;" parent="ELRano72_kiBZfm_JEAF-10" vertex="1">
          <mxGeometry x="42.5" y="25" width="69" height="60" as="geometry" />
        </mxCell>
        <mxCell id="ELRano72_kiBZfm_JEAF-11" value="Subscription" style="text;html=1;align=center;verticalAlign=middle;resizable=0;points=[];autosize=1;strokeColor=none;fillColor=none;" parent="1" vertex="1">
          <mxGeometry x="2" y="88" width="87" height="26" as="geometry" />
        </mxCell>
        <mxCell id="jlRopP4U9adaVWSlojzE-34" value="" style="rounded=0;whiteSpace=wrap;html=1;fillColor=none;movable=1;resizable=1;rotatable=1;deletable=1;editable=1;locked=0;connectable=1;container=0;" vertex="1" parent="1">
          <mxGeometry x="756" y="428" width="330" height="335" as="geometry" />
        </mxCell>
        <mxCell id="jlRopP4U9adaVWSlojzE-35" value="" style="shape=link;html=1;rounded=0;movable=1;resizable=1;rotatable=1;deletable=1;editable=1;locked=0;connectable=1;" edge="1" parent="1">
          <mxGeometry width="100" relative="1" as="geometry">
            <mxPoint x="644" y="631" as="sourcePoint" />
            <mxPoint x="755" y="631" as="targetPoint" />
            <Array as="points" />
          </mxGeometry>
        </mxCell>
        <mxCell id="jlRopP4U9adaVWSlojzE-36" value="" style="shape=link;html=1;rounded=0;movable=1;resizable=1;rotatable=1;deletable=1;editable=1;locked=0;connectable=1;" edge="1" parent="1">
          <mxGeometry width="100" relative="1" as="geometry">
            <mxPoint x="465" y="470" as="sourcePoint" />
            <mxPoint x="465" y="528" as="targetPoint" />
            <Array as="points" />
          </mxGeometry>
        </mxCell>
        <mxCell id="jlRopP4U9adaVWSlojzE-8" value="Private subnet" style="points=[[0,0],[0.25,0],[0.5,0],[0.75,0],[1,0],[1,0.25],[1,0.5],[1,0.75],[1,1],[0.75,1],[0.5,1],[0.25,1],[0,1],[0,0.75],[0,0.5],[0,0.25]];outlineConnect=0;gradientColor=none;html=1;whiteSpace=wrap;fontSize=12;fontStyle=0;container=0;pointerEvents=0;collapsible=0;recursiveResize=0;shape=mxgraph.aws4.group;grIcon=mxgraph.aws4.group_security_group;grStroke=0;strokeColor=#00A4A6;fillColor=#E6F6F7;verticalAlign=top;align=left;spacingLeft=30;fontColor=#147EBA;dashed=0;movable=1;resizable=1;rotatable=1;deletable=1;editable=1;locked=0;connectable=1;" vertex="1" parent="1">
          <mxGeometry x="323.6715542521994" y="237" width="285.9855131964809" height="240" as="geometry" />
        </mxCell>
        <mxCell id="jlRopP4U9adaVWSlojzE-15" value="" style="image;sketch=0;aspect=fixed;html=1;points=[];align=center;fontSize=12;image=img/lib/mscae/Application_Gateway.svg;container=0;movable=1;resizable=1;rotatable=1;deletable=1;editable=1;locked=0;connectable=1;" vertex="1" parent="1">
          <mxGeometry x="422.19217008797654" y="323" width="86.16477272727273" height="86.16477272727273" as="geometry" />
        </mxCell>
        <mxCell id="jlRopP4U9adaVWSlojzE-16" value="Application Gateway" style="text;html=1;align=center;verticalAlign=middle;resizable=1;points=[];autosize=1;strokeColor=none;fillColor=none;container=0;movable=1;rotatable=1;deletable=1;editable=1;locked=0;connectable=1;" vertex="1" parent="1">
          <mxGeometry x="430.4046920821114" y="239.89" width="128" height="26" as="geometry" />
        </mxCell>
        <mxCell id="jlRopP4U9adaVWSlojzE-17" value="&#39;10.20.20.0/25&#39;" style="text;html=1;align=center;verticalAlign=middle;resizable=1;points=[];autosize=1;strokeColor=none;fillColor=none;container=0;movable=1;rotatable=1;deletable=1;editable=1;locked=0;connectable=1;" vertex="1" parent="1">
          <mxGeometry x="435.72158357771264" y="263" width="97" height="26" as="geometry" />
        </mxCell>
        <mxCell id="jlRopP4U9adaVWSlojzE-25" value="" style="image;aspect=fixed;html=1;points=[];align=center;fontSize=12;image=img/lib/azure2/networking/Public_IP_Addresses.svg;container=0;movable=1;resizable=1;rotatable=1;deletable=1;editable=1;locked=0;connectable=1;" vertex="1" parent="1">
          <mxGeometry x="568.7624633431085" y="226.89" width="62.23011363636364" height="49.78409090909091" as="geometry" />
        </mxCell>
        <mxCell id="jlRopP4U9adaVWSlojzE-18" value="" style="image;aspect=fixed;html=1;points=[];align=center;fontSize=12;image=img/lib/azure2/networking/Network_Security_Groups.svg;movable=1;resizable=1;rotatable=1;deletable=1;editable=1;locked=0;connectable=1;container=0;" vertex="1" parent="1">
          <mxGeometry x="296" y="219.78" width="52.20275119617226" height="63.389055023923454" as="geometry" />
        </mxCell>
        <mxCell id="jlRopP4U9adaVWSlojzE-56" style="edgeStyle=orthogonalEdgeStyle;shape=link;rounded=0;orthogonalLoop=1;jettySize=auto;html=1;width=11;" edge="1" parent="1">
          <mxGeometry relative="1" as="geometry">
            <mxPoint x="465" y="55" as="targetPoint" />
            <mxPoint x="465.29999999999995" y="147" as="sourcePoint" />
          </mxGeometry>
        </mxCell>
        <mxCell id="jlRopP4U9adaVWSlojzE-31" value="" style="rounded=0;whiteSpace=wrap;html=1;fillColor=none;container=0;movable=1;resizable=1;rotatable=1;deletable=1;editable=1;locked=0;connectable=1;" vertex="1" parent="1">
          <mxGeometry x="288.27" y="145" width="354" height="632" as="geometry" />
        </mxCell>
        <mxCell id="ELRano72_kiBZfm_JEAF-15" value="&lt;b&gt;Private subnet&lt;/b&gt;" style="points=[[0,0],[0.25,0],[0.5,0],[0.75,0],[1,0],[1,0.25],[1,0.5],[1,0.75],[1,1],[0.75,1],[0.5,1],[0.25,1],[0,1],[0,0.75],[0,0.5],[0,0.25]];outlineConnect=0;gradientColor=none;html=1;whiteSpace=wrap;fontSize=12;fontStyle=0;container=0;pointerEvents=0;collapsible=0;recursiveResize=0;shape=mxgraph.aws4.group;grIcon=mxgraph.aws4.group_security_group;grStroke=0;strokeColor=#00A4A6;fillColor=#E6F6F7;verticalAlign=top;align=left;spacingLeft=30;fontColor=#147EBA;dashed=0;movable=1;resizable=1;rotatable=1;deletable=1;editable=1;locked=0;connectable=1;" parent="1" vertex="1">
          <mxGeometry x="790" y="514.56" width="263.45" height="240" as="geometry" />
        </mxCell>
        <mxCell id="yg5hyfQdusnZHyedkA8o-137" value="" style="image;sketch=0;aspect=fixed;html=1;points=[];align=center;fontSize=12;image=img/lib/mscae/NetworkInterfaceCard.svg;container=0;movable=1;resizable=1;rotatable=1;deletable=1;editable=1;locked=0;connectable=1;" parent="1" vertex="1">
          <mxGeometry x="869.5" y="587.56" width="43.12" height="49" as="geometry" />
        </mxCell>
        <mxCell id="yg5hyfQdusnZHyedkA8o-2" value="" style="image;sketch=0;aspect=fixed;html=1;points=[];align=center;fontSize=12;image=img/lib/mscae/VirtualMachineWindows.svg;container=0;movable=1;resizable=1;rotatable=1;deletable=1;editable=1;locked=0;connectable=1;" parent="1" vertex="1">
          <mxGeometry x="938.5" y="591.56" width="53.26" height="49" as="geometry" />
        </mxCell>
        <mxCell id="ELRano72_kiBZfm_JEAF-22" value="&lt;div&gt;&lt;b&gt;Admin Server&lt;/b&gt;&lt;/div&gt;" style="text;html=1;align=center;verticalAlign=middle;resizable=1;points=[];autosize=1;strokeColor=none;fillColor=none;container=0;movable=1;rotatable=1;deletable=1;editable=1;locked=0;connectable=1;" parent="1" vertex="1">
          <mxGeometry x="899.8544329896907" y="513.9973036367549" width="95" height="26" as="geometry" />
        </mxCell>
        <mxCell id="jlRopP4U9adaVWSlojzE-9" value="" style="image;aspect=fixed;html=1;points=[];align=center;fontSize=12;image=img/lib/azure2/networking/Network_Security_Groups.svg;movable=1;resizable=1;rotatable=1;deletable=1;editable=1;locked=0;connectable=1;container=0;" vertex="1" parent="1">
          <mxGeometry x="765" y="496.56" width="54.52631578947369" height="66.21052631578948" as="geometry" />
        </mxCell>
        <mxCell id="jlRopP4U9adaVWSlojzE-14" value="&lt;div&gt;&#39;10.10.10.0/25&#39;&lt;/div&gt;" style="text;html=1;align=center;verticalAlign=middle;resizable=1;points=[];autosize=1;strokeColor=none;fillColor=none;movable=1;rotatable=1;deletable=1;editable=1;locked=0;connectable=1;container=0;" vertex="1" parent="1">
          <mxGeometry x="898.85" y="532" width="97" height="26" as="geometry" />
        </mxCell>
        <mxCell id="jlRopP4U9adaVWSlojzE-27" value="" style="image;aspect=fixed;html=1;points=[];align=center;fontSize=12;image=img/lib/azure2/networking/Public_IP_Addresses.svg;movable=1;resizable=1;rotatable=1;deletable=1;editable=1;locked=0;connectable=1;container=0;" vertex="1" parent="1">
          <mxGeometry x="1009.86" y="496.56" width="65" height="52" as="geometry" />
        </mxCell>
        <mxCell id="yg5hyfQdusnZHyedkA8o-7" value="" style="image;aspect=fixed;html=1;points=[];align=center;fontSize=12;image=img/lib/azure2/networking/Virtual_Networks.svg;movable=1;resizable=1;rotatable=1;deletable=1;editable=1;locked=0;connectable=1;container=0;" parent="1" vertex="1">
          <mxGeometry x="790" y="441" width="67.01" height="40" as="geometry" />
        </mxCell>
        <mxCell id="ELRano72_kiBZfm_JEAF-19" value="&lt;div style=&quot;font-size: 16px;&quot;&gt;&lt;b&gt;&lt;font style=&quot;font-size: 16px;&quot;&gt;VNet Admin&lt;/font&gt;&lt;/b&gt;&lt;/div&gt;&lt;div style=&quot;font-size: 16px;&quot;&gt;&lt;b&gt;&lt;font style=&quot;font-size: 16px;&quot;&gt;&#39;10.10.10.0/24&lt;/font&gt;&#39;&lt;/b&gt;&lt;/div&gt;" style="text;html=1;align=center;verticalAlign=middle;resizable=1;points=[];autosize=1;strokeColor=none;fillColor=none;movable=1;rotatable=1;deletable=1;editable=1;locked=0;connectable=1;container=0;" parent="1" vertex="1">
          <mxGeometry x="857.01" y="436" width="124" height="50" as="geometry" />
        </mxCell>
        <mxCell id="ELRano72_kiBZfm_JEAF-17" value="&lt;b&gt;Private subnet&lt;/b&gt;" style="points=[[0,0],[0.25,0],[0.5,0],[0.75,0],[1,0],[1,0.25],[1,0.5],[1,0.75],[1,1],[0.75,1],[0.5,1],[0.25,1],[0,1],[0,0.75],[0,0.5],[0,0.25]];outlineConnect=0;gradientColor=none;html=1;whiteSpace=wrap;fontSize=12;fontStyle=0;container=0;pointerEvents=0;collapsible=0;recursiveResize=0;shape=mxgraph.aws4.group;grIcon=mxgraph.aws4.group_security_group;grStroke=0;strokeColor=#00A4A6;fillColor=#E6F6F7;verticalAlign=top;align=left;spacingLeft=30;fontColor=#147EBA;dashed=0;movable=1;resizable=1;rotatable=1;deletable=1;editable=1;locked=0;connectable=1;" parent="1" vertex="1">
          <mxGeometry x="324.4089403437371" y="528.6212195121951" width="282.2833177207791" height="240.04878048780486" as="geometry" />
        </mxCell>
        <mxCell id="qSwkj9l1K9Yoz8DUTmFk-4" value="&#39;10.20.20.0/25&#39;" style="text;html=1;align=center;verticalAlign=middle;resizable=1;points=[];autosize=1;strokeColor=none;fillColor=none;movable=1;rotatable=1;deletable=1;editable=1;locked=0;connectable=1;container=0;" parent="1" vertex="1">
          <mxGeometry x="351.4699350876463" y="551.6712195121952" width="102.93790157487055" height="27.3739837398374" as="geometry" />
        </mxCell>
        <mxCell id="yg5hyfQdusnZHyedkA8o-140" value="" style="image;aspect=fixed;html=1;points=[];align=center;fontSize=12;image=img/lib/azure2/networking/Network_Security_Groups.svg;movable=1;resizable=1;rotatable=1;deletable=1;editable=1;locked=0;connectable=1;container=0;" parent="1" vertex="1">
          <mxGeometry x="301.31689149560117" y="507.56" width="52.202751196172265" height="63.38905502392346" as="geometry" />
        </mxCell>
        <mxCell id="jlRopP4U9adaVWSlojzE-6" value="" style="image;aspect=fixed;html=1;points=[];align=center;fontSize=12;image=img/lib/azure2/compute/VM_Scale_Sets.svg;movable=1;resizable=1;rotatable=1;deletable=1;editable=1;locked=0;connectable=1;container=0;" vertex="1" parent="1">
          <mxGeometry x="413.50527859237536" y="608.35" width="100.83193181818183" height="100.83193181818183" as="geometry" />
        </mxCell>
        <mxCell id="jlRopP4U9adaVWSlojzE-7" value="&lt;div&gt;Virtual Machine Scale Set&lt;/div&gt;" style="text;html=1;align=center;verticalAlign=middle;resizable=1;points=[];autosize=1;strokeColor=none;fillColor=none;movable=1;rotatable=1;deletable=1;editable=1;locked=0;connectable=1;container=0;" vertex="1" parent="1">
          <mxGeometry x="441.14264316060064" y="530.6700000000001" width="156" height="26" as="geometry" />
        </mxCell>
        <mxCell id="yg5hyfQdusnZHyedkA8o-8" value="" style="image;aspect=fixed;html=1;points=[];align=center;fontSize=12;image=img/lib/azure2/networking/Virtual_Networks.svg;movable=1;resizable=1;rotatable=1;deletable=1;editable=1;locked=0;connectable=1;container=0;" parent="1" vertex="1">
          <mxGeometry x="321.6950146627566" y="150" width="64.14488636363636" height="38.29545454545455" as="geometry" />
        </mxCell>
        <mxCell id="ELRano72_kiBZfm_JEAF-14" value="&lt;div style=&quot;font-size: 16px;&quot;&gt;&lt;b&gt;&lt;font style=&quot;font-size: 16px;&quot;&gt;VNet Web&lt;/font&gt;&lt;/b&gt;&lt;/div&gt;&lt;div style=&quot;font-size: 16px;&quot;&gt;&lt;b&gt;&lt;font style=&quot;font-size: 16px;&quot;&gt;&#39;10.20.20.0/24&#39;&lt;font style=&quot;font-size: 16px;&quot;&gt;&lt;br&gt;&lt;/font&gt;&lt;/font&gt;&lt;/b&gt;&lt;/div&gt;" style="text;html=1;align=center;verticalAlign=middle;resizable=1;points=[];autosize=1;strokeColor=none;fillColor=none;movable=1;rotatable=1;deletable=1;editable=1;locked=0;connectable=1;container=0;" parent="1" vertex="1">
          <mxGeometry x="388.66017595307915" y="150" width="124" height="50" as="geometry" />
        </mxCell>
        <mxCell id="jlRopP4U9adaVWSlojzE-59" style="edgeStyle=orthogonalEdgeStyle;shape=link;rounded=0;orthogonalLoop=1;jettySize=auto;html=1;exitX=0;exitY=0.5;exitDx=0;exitDy=0;exitPerimeter=0;entryX=1;entryY=0.5;entryDx=0;entryDy=0;" edge="1" parent="1" source="jlRopP4U9adaVWSlojzE-58" target="yg5hyfQdusnZHyedkA8o-152">
          <mxGeometry relative="1" as="geometry" />
        </mxCell>
        <mxCell id="jlRopP4U9adaVWSlojzE-58" value="Home" style="html=1;whiteSpace=wrap;strokeColor=none;fillColor=#0079D6;labelPosition=center;verticalLabelPosition=middle;verticalAlign=top;align=center;fontSize=12;outlineConnect=0;spacingTop=-6;fontColor=#FFFFFF;sketch=0;shape=mxgraph.sitemap.home;" vertex="1" parent="1">
          <mxGeometry x="1049" y="24.38" width="120" height="70" as="geometry" />
        </mxCell>
        <mxCell id="jlRopP4U9adaVWSlojzE-61" style="edgeStyle=orthogonalEdgeStyle;shape=link;rounded=0;orthogonalLoop=1;jettySize=auto;html=1;entryX=0.655;entryY=1.035;entryDx=0;entryDy=0;entryPerimeter=0;" edge="1" parent="1" source="ELRano72_kiBZfm_JEAF-19" target="yg5hyfQdusnZHyedkA8o-152">
          <mxGeometry relative="1" as="geometry" />
        </mxCell>
      </root>
    </mxGraphModel>
  </diagram>
</mxfile>
